# xmcd
#
# Track frame offsets: 
#        150
#        7273
#        26663
#        45047
#        62071
#        82131
#        103178
#        117325
#        120085
#        136996
#        160407
#        177287
#        192299
#        207127
#        208779
#        228974
#        250018
#        255844
#        265678
#        278158
#        297554
#        299234
#
# Disc length: 4250 seconds
#
# Revision: 4
# Processed by: cddbd v1.5.2PL0 Copyright (c) Steve Scherf et al.
# Submitted via: ExactAudioCopy v1.3
#
DISCID=43109816
DTITLE=Chris Thomas King - Dirty South Hip Hop Blues
DYEAR=2002
DGENRE=Rock
TTITLE0=Cloning Overture
TTITLE1=Welcome to da Jungle
TTITLE2=Yo Kiss
TTITLE3=Ghetto Child, You're Not Alone
TTITLE4=Feel Me
TTITLE5=Da Thrill Is Gone from Here
TTITLE6=Tha Real
TTITLE7=Fruit
TTITLE8=Mississippi KKKrossroads
TTITLE9=Revelations
TTITLE10=Ghetto Life
TTITLE11=Hard Time Killing Floor Blues
TTITLE12=Poetry of Young Bill
TTITLE13=911 Interlude
TTITLE14=Gonna Take a Miracle
TTITLE15=Give Me a Chance
TTITLE16=Dirty South Chicken Heads
TTITLE17=Southern Chicks Blues
TTITLE18=Southern Chicks
TTITLE19=N Word Rap
TTITLE20=This Train
TTITLE21=21st Century Blues
EXTD=
EXTT0=
EXTT1=
EXTT2=
EXTT3=
EXTT4=
EXTT5=
EXTT6=
EXTT7=
EXTT8=
EXTT9=
EXTT10=
EXTT11=
EXTT12=
EXTT13=
EXTT14=
EXTT15=
EXTT16=
EXTT17=
EXTT18=
EXTT19=
EXTT20=
EXTT21=
PLAYORDER=
